<mxfile host="app.diagrams.net" agent="Mozilla/5.0 (X11; Linux x86_64) AppleWebKit/537.36 (KHTML, like Gecko) Chrome/131.0.0.0 Safari/537.36 Edg/131.0.0.0" version="24.8.6">
  <diagram id="C5RBs43oDa-KdzZeNtuy" name="Page-1">
    <mxGraphModel dx="900" dy="539" grid="1" gridSize="10" guides="1" tooltips="1" connect="1" arrows="1" fold="1" page="1" pageScale="1" pageWidth="1169" pageHeight="827" math="0" shadow="0">
      <root>
        <mxCell id="WIyWlLk6GJQsqaUBKTNV-0" />
        <mxCell id="WIyWlLk6GJQsqaUBKTNV-1" parent="WIyWlLk6GJQsqaUBKTNV-0" />
        <mxCell id="lHC9wkhfuLwAbuyRaJag-0" value="Context" style="swimlane;fontStyle=1;align=center;verticalAlign=top;childLayout=stackLayout;horizontal=1;startSize=27.75;horizontalStack=0;resizeParent=1;resizeParentMax=0;resizeLast=0;collapsible=0;marginBottom=0;fillColor=none;labelBackgroundColor=none;strokeColor=#ffffff;fontColor=#ffffff;" vertex="1" parent="WIyWlLk6GJQsqaUBKTNV-1">
          <mxGeometry x="300" y="306" width="225" height="119.75" as="geometry" />
        </mxCell>
        <mxCell id="lHC9wkhfuLwAbuyRaJag-1" value="- Map&lt;String, Way&gt; ways" style="text;fillColor=none;align=left;verticalAlign=top;spacingLeft=4;spacingRight=4;overflow=hidden;rotatable=0;points=[[0,0.5],[1,0.5]];portConstraint=eastwest;labelBackgroundColor=none;strokeColor=#ffffff;fontColor=#ffffff;" vertex="1" parent="lHC9wkhfuLwAbuyRaJag-0">
          <mxGeometry y="27.75" width="225" height="28" as="geometry" />
        </mxCell>
        <mxCell id="lHC9wkhfuLwAbuyRaJag-2" style="line;strokeWidth=1;fillColor=none;align=left;verticalAlign=middle;spacingTop=-1;spacingLeft=3;spacingRight=3;rotatable=0;labelPosition=right;points=[];portConstraint=eastwest;labelBackgroundColor=none;strokeColor=#ffffff;" vertex="1" parent="lHC9wkhfuLwAbuyRaJag-0">
          <mxGeometry y="55.75" width="225" height="8" as="geometry" />
        </mxCell>
        <mxCell id="lHC9wkhfuLwAbuyRaJag-3" value="+Context()" style="text;fillColor=none;align=left;verticalAlign=top;spacingLeft=4;spacingRight=4;overflow=hidden;rotatable=0;points=[[0,0.5],[1,0.5]];portConstraint=eastwest;labelBackgroundColor=none;strokeColor=#ffffff;fontColor=#ffffff;" vertex="1" parent="lHC9wkhfuLwAbuyRaJag-0">
          <mxGeometry y="63.75" width="225" height="28" as="geometry" />
        </mxCell>
        <mxCell id="lHC9wkhfuLwAbuyRaJag-4" value="+executeWay(String wayKey)" style="text;fillColor=none;align=left;verticalAlign=top;spacingLeft=4;spacingRight=4;overflow=hidden;rotatable=0;points=[[0,0.5],[1,0.5]];portConstraint=eastwest;labelBackgroundColor=none;strokeColor=#ffffff;fontColor=#ffffff;" vertex="1" parent="lHC9wkhfuLwAbuyRaJag-0">
          <mxGeometry y="91.75" width="225" height="28" as="geometry" />
        </mxCell>
        <mxCell id="lHC9wkhfuLwAbuyRaJag-5" value="&lt;&lt;interface&gt;&gt;&#xa;Way" style="swimlane;fontStyle=1;align=center;verticalAlign=top;childLayout=stackLayout;horizontal=1;startSize=45;horizontalStack=0;resizeParent=1;resizeParentMax=0;resizeLast=0;collapsible=0;marginBottom=0;fillColor=none;labelBackgroundColor=none;strokeColor=#ffffff;fontColor=#ffffff;" vertex="1" parent="WIyWlLk6GJQsqaUBKTNV-1">
          <mxGeometry x="609" y="317" width="94" height="83" as="geometry" />
        </mxCell>
        <mxCell id="lHC9wkhfuLwAbuyRaJag-6" style="line;strokeWidth=1;fillColor=none;align=left;verticalAlign=middle;spacingTop=-1;spacingLeft=3;spacingRight=3;rotatable=0;labelPosition=right;points=[];portConstraint=eastwest;labelBackgroundColor=none;strokeColor=#ffffff;" vertex="1" parent="lHC9wkhfuLwAbuyRaJag-5">
          <mxGeometry y="45" width="94" height="8" as="geometry" />
        </mxCell>
        <mxCell id="lHC9wkhfuLwAbuyRaJag-7" value="+execute()" style="text;fillColor=none;align=left;verticalAlign=top;spacingLeft=4;spacingRight=4;overflow=hidden;rotatable=0;points=[[0,0.5],[1,0.5]];portConstraint=eastwest;labelBackgroundColor=none;strokeColor=#ffffff;fontColor=#ffffff;" vertex="1" parent="lHC9wkhfuLwAbuyRaJag-5">
          <mxGeometry y="53" width="94" height="30" as="geometry" />
        </mxCell>
        <mxCell id="lHC9wkhfuLwAbuyRaJag-8" value="CarWay" style="swimlane;fontStyle=1;align=center;verticalAlign=top;childLayout=stackLayout;horizontal=1;startSize=27.6;horizontalStack=0;resizeParent=1;resizeParentMax=0;resizeLast=0;collapsible=0;marginBottom=0;fillColor=none;labelBackgroundColor=none;strokeColor=#ffffff;fontColor=#ffffff;" vertex="1" parent="WIyWlLk6GJQsqaUBKTNV-1">
          <mxGeometry x="753" y="200" width="91" height="63.6" as="geometry" />
        </mxCell>
        <mxCell id="lHC9wkhfuLwAbuyRaJag-9" style="line;strokeWidth=1;fillColor=none;align=left;verticalAlign=middle;spacingTop=-1;spacingLeft=3;spacingRight=3;rotatable=0;labelPosition=right;points=[];portConstraint=eastwest;labelBackgroundColor=none;strokeColor=#ffffff;" vertex="1" parent="lHC9wkhfuLwAbuyRaJag-8">
          <mxGeometry y="27.6" width="91" height="8" as="geometry" />
        </mxCell>
        <mxCell id="lHC9wkhfuLwAbuyRaJag-10" value="+execute()" style="text;fillColor=none;align=left;verticalAlign=top;spacingLeft=4;spacingRight=4;overflow=hidden;rotatable=0;points=[[0,0.5],[1,0.5]];portConstraint=eastwest;labelBackgroundColor=none;strokeColor=#ffffff;fontColor=#ffffff;" vertex="1" parent="lHC9wkhfuLwAbuyRaJag-8">
          <mxGeometry y="35.6" width="91" height="28" as="geometry" />
        </mxCell>
        <mxCell id="lHC9wkhfuLwAbuyRaJag-11" value="BoatWay" style="swimlane;fontStyle=1;align=center;verticalAlign=top;childLayout=stackLayout;horizontal=1;startSize=27.6;horizontalStack=0;resizeParent=1;resizeParentMax=0;resizeLast=0;collapsible=0;marginBottom=0;fillColor=none;labelBackgroundColor=none;strokeColor=#ffffff;fontColor=#ffffff;" vertex="1" parent="WIyWlLk6GJQsqaUBKTNV-1">
          <mxGeometry x="753" y="327" width="91" height="63.6" as="geometry" />
        </mxCell>
        <mxCell id="lHC9wkhfuLwAbuyRaJag-12" style="line;strokeWidth=1;fillColor=none;align=left;verticalAlign=middle;spacingTop=-1;spacingLeft=3;spacingRight=3;rotatable=0;labelPosition=right;points=[];portConstraint=eastwest;labelBackgroundColor=none;strokeColor=#ffffff;" vertex="1" parent="lHC9wkhfuLwAbuyRaJag-11">
          <mxGeometry y="27.6" width="91" height="8" as="geometry" />
        </mxCell>
        <mxCell id="lHC9wkhfuLwAbuyRaJag-13" value="+execute()" style="text;fillColor=none;align=left;verticalAlign=top;spacingLeft=4;spacingRight=4;overflow=hidden;rotatable=0;points=[[0,0.5],[1,0.5]];portConstraint=eastwest;labelBackgroundColor=none;strokeColor=#ffffff;fontColor=#ffffff;" vertex="1" parent="lHC9wkhfuLwAbuyRaJag-11">
          <mxGeometry y="35.6" width="91" height="28" as="geometry" />
        </mxCell>
        <mxCell id="lHC9wkhfuLwAbuyRaJag-14" value="PlaneWay" style="swimlane;fontStyle=1;align=center;verticalAlign=top;childLayout=stackLayout;horizontal=1;startSize=27.6;horizontalStack=0;resizeParent=1;resizeParentMax=0;resizeLast=0;collapsible=0;marginBottom=0;fillColor=none;labelBackgroundColor=none;strokeColor=#ffffff;fontColor=#ffffff;" vertex="1" parent="WIyWlLk6GJQsqaUBKTNV-1">
          <mxGeometry x="753" y="454" width="91" height="63.6" as="geometry" />
        </mxCell>
        <mxCell id="lHC9wkhfuLwAbuyRaJag-15" style="line;strokeWidth=1;fillColor=none;align=left;verticalAlign=middle;spacingTop=-1;spacingLeft=3;spacingRight=3;rotatable=0;labelPosition=right;points=[];portConstraint=eastwest;labelBackgroundColor=none;strokeColor=#ffffff;" vertex="1" parent="lHC9wkhfuLwAbuyRaJag-14">
          <mxGeometry y="27.6" width="91" height="8" as="geometry" />
        </mxCell>
        <mxCell id="lHC9wkhfuLwAbuyRaJag-16" value="+execute()" style="text;fillColor=none;align=left;verticalAlign=top;spacingLeft=4;spacingRight=4;overflow=hidden;rotatable=0;points=[[0,0.5],[1,0.5]];portConstraint=eastwest;labelBackgroundColor=none;strokeColor=#ffffff;fontColor=#ffffff;" vertex="1" parent="lHC9wkhfuLwAbuyRaJag-14">
          <mxGeometry y="35.6" width="91" height="28" as="geometry" />
        </mxCell>
        <mxCell id="lHC9wkhfuLwAbuyRaJag-17" value="" style="curved=1;dashed=1;startArrow=block;startSize=16;startFill=0;endArrow=none;exitX=0.79;exitY=-0.01;entryX=0;entryY=0.5;rounded=0;fontColor=default;fillColor=none;labelBackgroundColor=none;strokeColor=#ffffff;" edge="1" parent="WIyWlLk6GJQsqaUBKTNV-1" source="lHC9wkhfuLwAbuyRaJag-5" target="lHC9wkhfuLwAbuyRaJag-8">
          <mxGeometry relative="1" as="geometry">
            <Array as="points">
              <mxPoint x="728" y="239" />
            </Array>
          </mxGeometry>
        </mxCell>
        <mxCell id="lHC9wkhfuLwAbuyRaJag-18" value="" style="curved=1;dashed=1;startArrow=block;startSize=16;startFill=0;endArrow=none;exitX=1;exitY=0.49;entryX=0;entryY=0.5;rounded=0;fontColor=default;fillColor=none;labelBackgroundColor=none;strokeColor=#ffffff;" edge="1" parent="WIyWlLk6GJQsqaUBKTNV-1" source="lHC9wkhfuLwAbuyRaJag-5" target="lHC9wkhfuLwAbuyRaJag-11">
          <mxGeometry relative="1" as="geometry">
            <Array as="points" />
          </mxGeometry>
        </mxCell>
        <mxCell id="lHC9wkhfuLwAbuyRaJag-19" value="" style="curved=1;dashed=1;startArrow=block;startSize=16;startFill=0;endArrow=none;exitX=0.79;exitY=0.99;entryX=0;entryY=0.5;rounded=0;fontColor=default;fillColor=none;labelBackgroundColor=none;strokeColor=#ffffff;" edge="1" parent="WIyWlLk6GJQsqaUBKTNV-1" source="lHC9wkhfuLwAbuyRaJag-5" target="lHC9wkhfuLwAbuyRaJag-14">
          <mxGeometry relative="1" as="geometry">
            <Array as="points">
              <mxPoint x="728" y="493" />
            </Array>
          </mxGeometry>
        </mxCell>
        <mxCell id="lHC9wkhfuLwAbuyRaJag-20" value="uses" style="curved=1;startArrow=diamondThin;endArrow=open;endSize=16;exitX=1;exitY=0.5;entryX=-0.01;entryY=0.49;rounded=0;startFill=1;startSize=16;fontColor=#ffffff;labelBackgroundColor=none;strokeColor=#ffffff;" edge="1" parent="WIyWlLk6GJQsqaUBKTNV-1" source="lHC9wkhfuLwAbuyRaJag-0" target="lHC9wkhfuLwAbuyRaJag-5">
          <mxGeometry relative="1" as="geometry">
            <Array as="points" />
          </mxGeometry>
        </mxCell>
      </root>
    </mxGraphModel>
  </diagram>
</mxfile>
